<svg style="position:absolute;top:0;left:0;width:100%;height:100%"><defs><mask id="Mask"><rect x="0" y="0" width="100%" height="100%" rx="0" ry="0" fill="#fff"></rect><rect x="16" y="16" width="530" height="530" id="hole" rx="0" ry="0"></rect></mask></defs><rect x="0" y="0" width="100%" height="100%" style="fill:rgba(0,0,0,0.5)" mask="url(#Mask)" class="v2shadowMask"></rect><use href="#hole" fill="rgba(0,0,0,0)" stroke="#fff" stroke-width="2" class="v2cropSection" style="cursor:move"></use><g transform="translate(10, 10), rotate(0)" style="cursor:nwse-resize"><rect fill="rgba(0,0,0,0)" stroke="none" x="0" y="0" width="20" height="20" class="v2cropperHandle nw"></rect><path d="M5,0C2.2,0,0,2.2,0,5v15h6V6h14V0H5z" fill="#fff" class="v2cropperHandle nw"></path></g><g transform="translate(552, 10), rotate(90)" style="cursor:nesw-resize"><rect fill="rgba(0,0,0,0)" stroke="none" x="0" y="0" width="20" height="20" class="v2cropperHandle ne"></rect><path d="M5,0C2.2,0,0,2.2,0,5v15h6V6h14V0H5z" fill="#fff" class="v2cropperHandle ne"></path></g><g transform="translate(10, 552), rotate(270)" style="cursor:nesw-resize"><rect fill="rgba(0,0,0,0)" stroke="none" x="0" y="0" width="20" height="20" class="v2cropperHandle sw"></rect><path d="M5,0C2.2,0,0,2.2,0,5v15h6V6h14V0H5z" fill="#fff" class="v2cropperHandle sw"></path></g><g transform="translate(552, 552), rotate(180)" style="cursor:nwse-resize"><rect fill="rgba(0,0,0,0)" stroke="none" x="0" y="0" width="20" height="20" class="v2cropperHandle se"></rect><path d="M5,0C2.2,0,0,2.2,0,5v15h6V6h14V0H5z" fill="#fff" class="v2cropperHandle se"></path></g><rect fill="rgba(0,0,0,0)" stroke="none" x="36" y="6" width="490" height="30" class="v2cropperHandle n" style="cursor:ns-resize"></rect><rect fill="rgba(0,0,0,0)" stroke="none" x="526" y="36" width="30" height="490" class="v2cropperHandle e" style="cursor:ew-resize"></rect><rect fill="rgba(0,0,0,0)" stroke="none" x="36" y="536" width="490" height="30" class="v2cropperHandle s" style="cursor:ns-resize"></rect><rect fill="rgba(0,0,0,0)" stroke="none" x="-4" y="36" width="30" height="490" class="v2cropperHandle w" style="cursor:ew-resize"></rect></svg>